<svg xmlns="http://www.w3.org/2000/svg" viewBox="0 0 16 16" fill="none">
  <path fill="#D13438" d="M5.2 4.2 4.1 3.1l.8-.8 1.4 1.4c.5-.2 1.1-.3 1.7-.3s1.2.1 1.7.3l1.4-1.4.8.8-1.1 1.1c.5.5.8 1.1 1 1.8H4.2c.2-.7.5-1.3 1-1.8Z"/>
  <path fill="#D13438" d="M3.5 7h9v2.3l1.8.7-.4 1-1.4-.5c-.2.7-.5 1.3-.9 1.8l1.1 1.1-.8.8-1.2-1.2c-.7.5-1.6.8-2.7.8s-2-.3-2.7-.8l-1.2 1.2-.8-.8 1.1-1.1c-.4-.5-.7-1.1-.9-1.8l-1.4.5-.4-1 1.8-.7V7Z"/>
  <path stroke="#fff" stroke-linecap="round" stroke-width="1" d="M8 7.3v5.4" opacity=".75"/>
</svg>
