<svg xmlns="http://www.w3.org/2000/svg" viewBox="0 0 256 256" width="256" height="256" role="img" aria-label="ADOExt marketplace trinity icon">
  <defs>
    <radialGradient id="bgAzure" cx="0" cy="0" r="1" gradientUnits="userSpaceOnUse" gradientTransform="translate(30 30) rotate(45) scale(220)">
      <stop offset="0" stop-color="#2196E8"/>
      <stop offset="0.6" stop-color="#2196E8" stop-opacity="0.6"/>
      <stop offset="1" stop-color="#2196E8" stop-opacity="0"/>
    </radialGradient>
    <radialGradient id="bgGit" cx="0" cy="0" r="1" gradientUnits="userSpaceOnUse" gradientTransform="translate(226 30) rotate(135) scale(220)">
      <stop offset="0" stop-color="#F97316"/>
      <stop offset="0.6" stop-color="#F97316" stop-opacity="0.6"/>
      <stop offset="1" stop-color="#F97316" stop-opacity="0"/>
    </radialGradient>
    <radialGradient id="bgMcp" cx="0" cy="0" r="1" gradientUnits="userSpaceOnUse" gradientTransform="translate(128 240) rotate(-90) scale(220)">
      <stop offset="0" stop-color="#1F2328"/>
      <stop offset="0.6" stop-color="#1F2328" stop-opacity="0.7"/>
      <stop offset="1" stop-color="#1F2328" stop-opacity="0"/>
    </radialGradient>
  </defs>

  <rect width="256" height="256" fill="#4B5563"/>
  <rect width="256" height="256" fill="url(#bgAzure)"/>
  <rect width="256" height="256" fill="url(#bgGit)"/>
  <rect width="256" height="256" fill="url(#bgMcp)"/>

  <circle cx="72" cy="76" r="54" fill="#2AA6FF" opacity="0.07"/>
  <circle cx="194" cy="76" r="54" fill="#FF8B4A" opacity="0.06"/>
  <circle cx="128" cy="192" r="54" fill="#1F2328" opacity="0.16"/>

  <circle cx="72" cy="76" r="38" fill="#0E7DD2" opacity="0.28"/>
  <circle cx="72" cy="76" r="38" fill="none" stroke="#B7E4FF" stroke-opacity="0.42" stroke-width="2.5"/>

  <circle cx="194" cy="76" r="38" fill="#F97316" opacity="0.20"/>
  <circle cx="194" cy="76" r="38" fill="none" stroke="#FFE0CB" stroke-opacity="0.42" stroke-width="2.5"/>

  <circle cx="128" cy="192" r="38" fill="#24292F" opacity="0.66"/>
  <circle cx="128" cy="192" r="38" fill="none" stroke="#D0D7DE" stroke-opacity="0.48" stroke-width="2.5"/>

  <g transform="translate(50 54) scale(1.83)" fill="#FFFFFF">
    <path d="M0 8.877L2.247 5.91l8.405-3.416V.022l7.37 5.393L2.966 8.338v8.225L0 15.707zm24-4.45v14.651l-5.753 4.9-9.303-3.057v3.056l-5.978-7.416 15.057 1.798V5.415z"/>
  </g>

  <g transform="translate(167.3 49.3) scale(0.55)">
    <path fill="#FFFFFF" d="M48.5 0L97 48.5L48.5 97L0 48.5Z"/>
    <path fill="#F05133" d="M92.71 44.408L52.591 4.291c-2.31-2.311-6.057-2.311-8.369 0l-8.33 8.332l10.566 10.566c2.456-.83 5.272-.273 7.229 1.685c1.969 1.97 2.521 4.81 1.67 7.275l10.186 10.185c2.465-.85 5.307-.3 7.275 1.671c2.75 2.75 2.75 7.206 0 9.958c-2.752 2.751-7.208 2.751-9.961 0c-2.068-2.07-2.58-5.11-1.531-7.658l-9.5-9.499v24.997c.67.332 1.303.774 1.861 1.332c2.75 2.75 2.75 7.206 0 9.959c-2.75 2.749-7.209 2.749-9.957 0c-2.75-2.754-2.75-7.21 0-9.959c.68-.679 1.467-1.193 2.307-1.537V36.369c-.84-.344-1.625-.853-2.307-1.537c-2.083-2.082-2.584-5.14-1.516-7.698L31.798 16.715L4.288 44.222c-2.311 2.313-2.311 6.06 0 8.371l40.121 40.118c2.31 2.311 6.056 2.311 8.369 0l39.929-39.929c2.311-2.311 2.311-6.06.003-8.374"/>
  </g>

  <g transform="translate(96.8 152.2) scale(0.43)" fill="none" stroke="#FFFFFF" stroke-width="12" stroke-linecap="round" stroke-linejoin="round">
    <path d="M23.5996 85.2532L86.2021 22.6507C94.8457 14.0071 108.86 14.0071 117.503 22.6507C126.147 31.2942 126.147 45.3083 117.503 53.9519L70.2254 101.23"/>
    <path d="M70.8789 100.578L117.504 53.952C126.148 45.3083 140.163 45.3083 148.806 53.952L149.132 54.278C157.776 62.9216 157.776 76.9357 149.132 85.5792L92.5139 142.198C89.6327 145.079 89.6327 149.75 92.5139 152.631L104.14 164.257"/>
    <path d="M101.853 38.3013L55.553 84.6011C46.9094 93.2447 46.9094 107.258 55.553 115.902C64.1966 124.546 78.2106 124.546 86.8543 115.902L133.154 69.6025"/>
  </g>
</svg>